<svg version="1" xmlns="http://www.w3.org/2000/svg" width="933.333" height="933.333" viewBox="0 0 700.000000 700.000000"><path d="M402 146.7c-2.8.7-6.3 1.9-7.8 2.7-4.3 2.3-11.1 8.6-13.7 12.6-2 3.2-9 21.3-21.6 56-1.7 4.7-3.5 9.4-4 10.5-.5 1.1-5.4 14.6-10.9 30-11.9 32.8-31.3 85.5-37 100.5-2.3 5.8-4.9 12.7-5.9 15.5-12.7 34.7-39.5 106.8-40.6 109.3-.8 1.8-1.5 3.7-1.5 4.2s-.5 2.1-1.2 3.7c-.6 1.5-1.2 3.2-1.4 3.8-.1.5-1.5 4.1-3 8-2.3 5.8-2.8 8.5-2.8 16 0 7.8.4 9.8 2.8 14.7 9.1 19 34 26.1 51.7 14.8 6.6-4.3 12.2-10.8 14.6-17.2 1.1-2.9 9.7-26.2 19.2-51.8 9.5-25.6 19-51 21.1-56.5 6-15.7 23.6-64.3 30.1-83 3.2-9.4 6.3-17.9 6.8-19 .5-1.1 1.8-4.5 2.9-7.5 3-8.2 21.2-56.2 22.2-58.5.4-1.1 4.3-11.5 8.5-23 4.2-11.6 8.7-23.7 10-27 1.3-3.3 3.3-9.3 4.5-13.4 6.6-21.7-5.2-41.8-27-45.9-6.8-1.2-9.6-1.2-16 .5zM188.1 212.3c-5 1-7.7 2.5-15.3 8.7-6.2 5-94.9 93.6-104.5 104.3-9.2 10.3-10.7 14-10.7 25.2.1 14.6-1.3 12.8 60.7 75 54.6 54.7 58.5 58.3 65.9 60.8 5.6 1.9 14.2 2.5 19.5 1.3 9.7-2.2 19.3-10.2 24.3-20.2 2.8-5.7 3.2-7.6 3.2-14.7.1-7-.3-9.1-2.7-14.1-3-6.3-6.8-10.3-60-62.4l-26.8-26.3 17.4-17c58.7-57.5 66.6-65.7 69.4-71.5 3.9-8.1 3.8-19.4-.1-28-4.8-10.6-11.1-16.4-21.5-19.5-8-2.4-12.8-2.8-18.8-1.6zM493.9 212.9c-8.8 3.1-13.6 6.6-19.7 14.6-.4.5-1.8 3.2-3.1 5.9-2.8 6.1-3.5 18.3-1.3 24.8 2.1 6.3 6.8 11.6 48.1 53.1 20.7 20.7 37.7 38.1 37.9 38.5.1.4-16.5 17.4-36.9 37.7-35.2 35.1-45.7 46.4-48.9 52.8-2.1 4.2-1.8 20.2.5 25.3 9.2 19.9 30.2 28.3 49 19.6 5.7-2.7 11.3-8 57.2-53.7 27.9-27.8 53.6-54 57.1-58.3 7.4-9 9-13.6 8.7-24.9-.3-9.4-2.1-13.9-8.7-21.8-4.3-5.1-95.2-96.3-104.3-104.6-5.2-4.8-10.8-8-16-9.4-5.5-1.4-14.9-1.2-19.6.4z"/></svg>