<svg version="1" xmlns="http://www.w3.org/2000/svg" width="933.333" height="933.333" viewBox="0 0 700.000000 700.000000"><path d="M402.5 146.4c-7.5 1.9-12.5 4.9-17.6 10.3-6 6.3-5.4 5.3-15.3 31.9-18.6 50.4-33.8 92-34.1 93.4-.5 2.4-23.4 64.3-24.4 66.1-1 1.7-57.7 154.8-60.1 162.2-.7 2.2-1 6.9-.8 11 .7 13.6 8 24.1 20.6 30 5.9 2.7 7.8 3.1 15.2 3.1 7.4 0 9.3-.4 15-3 7.8-3.7 14.5-10.1 17.6-16.9 2.7-5.9 67.3-180.6 68.4-185 .9-3.6 22.5-62.4 25-68 1-2.2 5-12.6 8.8-23 3.9-10.5 11.3-30.6 16.6-44.8 8.9-23.9 9.6-26.2 9.6-33 0-8.7-1.8-14.5-6.5-20.9-8.2-11.3-24.4-17-38-13.4zM189.7 212c-11.1 1.9-11.9 2.6-71.3 62.2C54.8 338 57.6 334.6 57.6 350c0 15.4-2.8 12 60.8 75.8 43.6 43.8 57.2 56.8 61.1 58.7 18.7 9.2 39.8 1.7 48.8-17.3 2.8-5.8 3.2-7.7 3.1-14.7 0-6.6-.5-9.1-2.9-14.3-2.6-5.7-6.1-9.5-44.6-46.8-23.1-22.4-41.9-41-41.9-41.4 0-.4 18.8-19.1 41.9-41.4 38.3-37.2 42.1-41.1 44.7-46.8 2.3-5.2 2.8-7.7 2.8-14.3.1-6.9-.4-8.9-3.1-14.7-6.1-13-15.2-19.2-31.3-21.3-1.4-.1-4.7.1-7.3.5zM494.8 212.5c-10.4 2.8-18.9 10.2-23.6 20.4-2.3 4.7-2.7 7-2.7 14.6 0 15-1.1 13.5 46.5 61.1l41.5 41.5-41.4 41.1c-47.6 47.4-46.6 46-46.6 61.3 0 7.6.4 9.9 2.7 14.7 9.5 20.5 34 27.8 52.8 15.8 2.5-1.6 28.9-27.3 58.7-57.2 62.4-62.5 59.8-59.2 59.8-75.8 0-16.6 2.6-13.3-59.8-75.8-29.8-29.9-56.2-55.6-58.7-57.2-8.4-5.4-19.7-7.2-29.2-4.5z"/></svg>