<?xml version="1.0" encoding="utf-8"?>
<!-- Generator: Adobe Illustrator 22.1.0, SVG Export Plug-In . SVG Version: 6.00 Build 0)  -->
<svg version="1.1" id="Layer_1" xmlns="http://www.w3.org/2000/svg" xmlns:xlink="http://www.w3.org/1999/xlink" x="0px" y="0px"
	 viewBox="0 0 1295.8 938.1" style="enable-background:new 0 0 1295.8 938.1;" xml:space="preserve">
<style type="text/css">
	.st0{fill:#ECEEEF;}
	.st1{clip-path:url(#SVGID_2_);fill:#834F8B;}
	.st2{clip-path:url(#SVGID_2_);fill:#5E82D6;}
	.st3{clip-path:url(#SVGID_2_);fill:#49855B;}
	.st4{clip-path:url(#SVGID_2_);fill:#D6CD5E;}
	.st5{clip-path:url(#SVGID_2_);fill:#D6A05E;}
	.st6{clip-path:url(#SVGID_2_);fill:#C55B5B;}
	.st7{clip-path:url(#XMLID_3_);fill:#F2CDD8;}
	.st8{clip-path:url(#XMLID_3_);fill:#A4D2DE;}
	.st9{clip-path:url(#XMLID_4_);fill:#724120;}
	.st10{clip-path:url(#XMLID_4_);fill:#1C1B1B;}
</style>
<path class="st0" d="M518.2,938.1c-14.4,0-28.6-2.4-42.4-7.2l-0.1,0c-32.6-11.3-58.6-34.6-73.2-65.5c-14.4-30.4-15.9-64.5-4.2-96.1
	L651.7,83c11.7-31.6,35.2-56.9,66.2-71.1c30.5-14,64.8-15.7,96.5-4.8l0.1,0.1c32.6,11.3,58.6,34.6,73.2,65.5
	c14.4,30.4,15.9,64.6,4.2,96.1L638.6,855c-17.7,48.1-62.7,80.6-114.6,82.9C522.1,938,520.1,938.1,518.2,938.1z M511.8,827
	c2.4,0.8,4.9,1.2,7.3,1.1c6.1-0.3,13.6-3.8,16.2-11.1l253.4-686.3c1.7-4.6,0.7-8.6-0.5-11c-1.1-2.3-3.8-6.4-9.8-8.5
	c-9.6-3.3-20.4,1.3-23.6,10L501.5,807.4c-1.7,4.6-0.7,8.6,0.5,11C503.1,820.7,505.8,824.8,511.8,827z"/>
<path class="st0" d="M960.4,804.5c-34.2,0-66.3-13.3-90.4-37.5c-49.8-49.8-49.8-130.9,0-180.7l117.2-117.2L870,351.8
	c-49.8-49.8-49.8-130.9,0-180.8c24.1-24.1,56.2-37.4,90.4-37.4c34.1,0,66.2,13.3,90.4,37.4l207.6,207.6
	c24.1,24.2,37.4,56.2,37.4,90.4c0,34.1-13.3,66.2-37.5,90.4L1050.7,767C1026.6,791.2,994.5,804.5,960.4,804.5z M960.3,243.6
	c-2.8,0-8,0.7-12.6,5.2c-7,7-7,18.3,0,25.2l195,195l-195,195c-6.9,6.9-6.9,18.3,0,25.2c4.5,4.5,9.8,5.2,12.6,5.2
	c2.8,0,8.1-0.7,12.6-5.2l207.6-207.6c3.3-3.3,5.2-7.9,5.2-12.6c0-4.7-1.9-9.3-5.2-12.6L973,248.9
	C968.4,244.3,963.1,243.6,960.3,243.6z"/>
<path class="st0" d="M335.4,804.5c-34.1,0-66.2-13.3-90.4-37.4L37.4,559.4C13.3,535.3,0,503.2,0,469.1c0-34.1,13.3-66.2,37.4-90.4
	l207.6-207.6c24.1-24.1,56.2-37.4,90.4-37.4c34.2,0,66.3,13.3,90.4,37.5c49.8,49.8,49.8,130.9,0,180.7L308.6,469.1l117.2,117.2
	c24.1,24.1,37.4,56.2,37.4,90.4c0,34.1-13.3,66.2-37.4,90.4C401.7,791.2,369.6,804.5,335.4,804.5z M335.5,243.6
	c-2.8,0-8.1,0.7-12.6,5.2L115.2,456.5c-3.3,3.3-5.2,7.9-5.2,12.6c0,4.7,1.9,9.3,5.2,12.6l207.6,207.6c4.6,4.5,9.8,5.2,12.6,5.2
	c2.8,0,8.1-0.7,12.6-5.2c4.6-4.6,5.3-9.9,5.3-12.6s-0.7-8.1-5.2-12.6l-195-195l195-195c6.9-6.9,6.9-18.3,0-25.2
	C343.5,244.3,338.2,243.6,335.5,243.6z"/>
<g>
	<defs>
		<path id="SVGID_1_" d="M796.4,59.1c-37.7-13-79.6,6.1-93.2,42.9L449.9,788.3c-13.6,36.9,6,77.4,43.9,90.6
			c9.2,3.2,18.6,4.5,27.7,4.1c28.7-1.3,55.1-19.1,65.4-47l253.4-686.3C853.9,112.8,834.3,72.3,796.4,59.1z"/>
	</defs>
	<clipPath id="SVGID_2_">
		<use xlink:href="#SVGID_1_"  style="overflow:visible;"/>
	</clipPath>
	<rect x="445.6" y="732.4" class="st1" width="399" height="150.7"/>
	<rect x="445.6" y="596.4" class="st2" width="399" height="148.7"/>
	<rect x="445.6" y="458.4" class="st3" width="399" height="148.7"/>
	<rect x="445.6" y="322.4" class="st4" width="399" height="146.7"/>
	<rect x="445.6" y="178.4" class="st5" width="399" height="152.7"/>
	<rect x="445.6" y="55" class="st6" width="399" height="138"/>
</g>
<g>
	<defs>
		<path id="XMLID_184_" d="M386.9,625.2L230.8,469.1l156.1-156.1c28.5-28.5,28.5-74.5,0-103c-28.4-28.4-74.5-28.4-103,0L76.3,417.6
			C62.7,431.2,55,449.7,55,469.1c0,19.3,7.7,37.8,21.3,51.5L284,728.1c14.2,14.2,32.9,21.3,51.5,21.3c18.6,0,37.3-7.1,51.5-21.3
			C415.4,699.7,415.4,653.6,386.9,625.2z"/>
	</defs>
	<clipPath id="XMLID_3_">
		<use xlink:href="#XMLID_184_"  style="overflow:visible;"/>
	</clipPath>
	<polygon class="st7" points="253.2,469.1 433.6,671.4 433.6,774.2 95.2,469.1 433.6,163.9 433.6,266.7 	"/>
	<path class="st8" d="M140.6,480.4l288.2,289.1c3,3,4.7,7.1,4.7,11.4v57.4c0,14.3-17.3,21.5-27.4,11.4L35.4,480.4
		c-6.3-6.3-6.3-16.5,0-22.8L406.1,88.5c10.1-10.1,27.4-2.9,27.4,11.4v57.4c0,4.3-1.7,8.3-4.7,11.4L140.6,457.7
		C134.4,464,134.4,474.1,140.6,480.4z"/>
</g>
<g>
	<defs>
		<path id="XMLID_183_" d="M1219.5,417.6L1011.8,210c-28.5-28.4-74.6-28.4-103,0c-28.4,28.4-28.4,74.5,0,103L1065,469.1L908.9,625.2
			c-28.4,28.4-28.4,74.5,0,103c14.2,14.2,32.9,21.3,51.5,21.3c18.6,0,37.3-7.1,51.5-21.3l207.6-207.6c13.7-13.7,21.3-32.2,21.3-51.5
			C1240.8,449.7,1233.1,431.2,1219.5,417.6z"/>
	</defs>
	<clipPath id="XMLID_4_">
		<use xlink:href="#XMLID_183_"  style="overflow:visible;"/>
	</clipPath>
	<polygon class="st9" points="637.2,44.3 900.3,469.1 637.2,893.8 748.6,893.8 1189.2,469.1 748.6,44.3 	"/>
	<path class="st10" d="M783.3,44.3h61.5c4.3,0,8.4,1.7,11.4,4.7l408.4,408.7c6.3,6.3,6.3,16.5,0,22.7L856.2,889.1
		c-3,3-7.1,4.7-11.4,4.7h-61.5c-14.3,0-21.5-17.3-11.4-27.4l385.7-385.9c6.3-6.3,6.3-16.5,0-22.7L771.9,71.8
		C761.8,61.6,769,44.3,783.3,44.3z"/>
</g>
</svg>
